<svg xmlns="http://www.w3.org/2000/svg" width="32" height="32" viewBox="0 0 32 32">
    <path fill="#FFF" fill-rule="evenodd" d="M16.144 21.77s.367-.042.554-.247c.172-.19.167-.544.167-.544s-.024-1.662.732-1.907c.744-.24 1.7 1.606 2.715 2.317.766.537 1.349.42 1.349.42l2.71-.04s1.418-.089.746-1.227c-.055-.093-.392-.841-2.016-2.38-1.7-1.61-1.472-1.35.576-4.135 1.247-1.696 1.745-2.731 1.59-3.175-.149-.422-1.066-.31-1.066-.31l-3.052.018s-.227-.031-.394.071c-.164.1-.27.335-.27.335s-.483 1.312-1.127 2.428c-1.359 2.356-1.902 2.48-2.125 2.334-.516-.34-.387-1.37-.387-2.1 0-2.283.339-3.234-.66-3.48-.332-.083-.577-.137-1.425-.145-1.09-.012-2.011.003-2.533.264-.347.174-.615.56-.452.582.202.028.659.126.9.463.314.434.303 1.41.303 1.41s.18 2.686-.42 3.02c-.411.229-.976-.238-2.187-2.375-.62-1.095-1.09-2.305-1.09-2.305s-.09-.226-.251-.347c-.196-.147-.47-.193-.47-.193l-2.9.02s-.435.012-.595.205c-.142.172-.011.527-.011.527s2.27 5.422 4.842 8.154c2.357 2.506 5.034 2.342 5.034 2.342h1.213z"/>
</svg>
