<svg xmlns="http://www.w3.org/2000/svg" width="32" height="32" viewBox="0 0 32 32">
    <g fill="none" fill-rule="evenodd">
        <path fill="#5983f0" d="M16.2 14.336v3.542h4.928A4.211 4.211 0 0 1 19.3 20.64L20 22.8l2.26.138c1.73-1.594 2.73-3.941 2.73-6.729 0-.65-.059-1.273-.167-1.873h-8.622z"/>
        <path fill="#34A853" d="M9 18.8l-.98 1.312a9.151 9.151 0 0 0 8.18 5.044c2.473 0 4.545-.82 6.06-2.218L19.3 20.64c-.82.549-1.868.874-3.1.874-2.385 0-4.403-1.61-5.123-3.775L9 18.8z"/>
        <path fill="#FBBC05" d="M8.02 11.89A9.15 9.15 0 0 0 7.046 16c0 1.478.354 2.876.974 4.112l3.058-2.372a5.502 5.502 0 0 1-.287-1.74c0-.603.104-1.19.287-1.739L10 12.8l-1.98-.91z"/>
        <path fill="#EA4335" d="M8.02 11.89l3.058 2.371c.72-2.163 2.738-3.774 5.123-3.774 1.344 0 2.55.462 3.5 1.37l2.625-2.627c-1.585-1.477-3.657-2.384-6.125-2.384A9.151 9.151 0 0 0 8.02 11.89z"/>
    </g>
</svg>
