<?xml version="1.0" encoding="UTF-8"?>
<svg xmlns="http://www.w3.org/2000/svg" xmlns:xlink="http://www.w3.org/1999/xlink" width="75pt" height="22pt" viewBox="0 0 75 22" version="1.1">
<g id="surface1">
<path style=" stroke:none;fill-rule:evenodd;fill:rgb(13.333333%,13.333333%,13.333333%);fill-opacity:1;" d="M 2.648438 0 L 72.351562 0 C 73.816406 0 75 1.183594 75 2.640625 L 75 19.359375 C 75 20.816406 73.816406 22 72.351562 22 L 2.648438 22 C 1.183594 22 0 20.816406 0 19.359375 L 0 2.640625 C 0 1.183594 1.183594 0 2.648438 0 Z M 2.648438 0 "/>
<path style=" stroke:none;fill-rule:evenodd;fill:rgb(100%,100%,100%);fill-opacity:1;" d="M 15.8125 10.445312 C 15.8125 8.671875 17.324219 7.8125 17.382812 7.757812 C 16.511719 6.554688 15.234375 6.382812 14.765625 6.328125 C 13.664062 6.210938 12.558594 6.957031 12.035156 6.957031 C 11.453125 6.957031 10.582031 6.328125 9.652344 6.328125 C 8.429688 6.328125 7.324219 7.011719 6.6875 8.101562 C 5.40625 10.273438 6.335938 13.476562 7.558594 15.25 C 8.199219 16.109375 8.894531 17.082031 9.824219 17.023438 C 10.753906 16.964844 11.105469 16.453125 12.210938 16.453125 C 13.3125 16.453125 13.605469 17.023438 14.59375 17.023438 C 15.582031 17.023438 16.222656 16.164062 16.800781 15.308594 C 17.5 14.335938 17.789062 13.363281 17.789062 13.304688 C 17.734375 13.25 15.8125 12.5625 15.8125 10.445312 Z M 15.8125 10.445312 "/>
<path style=" stroke:none;fill-rule:evenodd;fill:rgb(100%,100%,100%);fill-opacity:1;" d="M 14.011719 5.183594 C 14.476562 4.554688 14.824219 3.753906 14.765625 2.894531 C 14.070312 2.953125 13.140625 3.351562 12.675781 3.980469 C 12.210938 4.496094 11.800781 5.355469 11.917969 6.15625 C 12.675781 6.210938 13.488281 5.753906 14.011719 5.183594 Z M 14.011719 5.183594 "/>
<path style=" stroke:none;fill-rule:evenodd;fill:rgb(100%,100%,100%);fill-opacity:1;" d="M 29.070312 16.910156 L 27.789062 16.910156 L 27.09375 14.734375 L 24.652344 14.734375 L 24.011719 16.910156 L 22.789062 16.910156 L 25.234375 9.53125 L 26.746094 9.53125 Z M 26.859375 13.820312 L 26.222656 11.875 C 26.164062 11.703125 26.046875 11.1875 25.8125 10.503906 C 25.753906 10.789062 25.640625 11.304688 25.464844 11.875 L 24.824219 13.820312 Z M 26.859375 13.820312 "/>
<path style=" stroke:none;fill-rule:evenodd;fill:rgb(100%,100%,100%);fill-opacity:1;" d="M 35.289062 14.222656 C 35.289062 15.136719 35.058594 15.824219 34.535156 16.394531 C 34.070312 16.851562 33.546875 17.082031 32.847656 17.082031 C 32.152344 17.082031 31.628906 16.851562 31.335938 16.335938 L 31.335938 19.140625 L 30.117188 19.140625 L 30.117188 13.421875 C 30.117188 12.847656 30.117188 12.277344 30.058594 11.648438 L 31.105469 11.648438 L 31.164062 12.503906 C 31.570312 11.875 32.152344 11.53125 32.964844 11.53125 C 33.605469 11.53125 34.128906 11.761719 34.535156 12.277344 C 35.058594 12.734375 35.289062 13.363281 35.289062 14.222656 Z M 34.070312 14.222656 C 34.070312 13.707031 33.953125 13.25 33.722656 12.960938 C 33.488281 12.621094 33.140625 12.449219 32.675781 12.449219 C 32.382812 12.449219 32.09375 12.5625 31.859375 12.734375 C 31.628906 12.90625 31.453125 13.191406 31.394531 13.476562 C 31.335938 13.648438 31.335938 13.761719 31.335938 13.820312 L 31.335938 14.734375 C 31.335938 15.136719 31.453125 15.421875 31.6875 15.707031 C 31.917969 15.992188 32.265625 16.109375 32.617188 16.109375 C 33.082031 16.109375 33.429688 15.9375 33.664062 15.59375 C 33.953125 15.25 34.070312 14.792969 34.070312 14.222656 Z M 34.070312 14.222656 "/>
<path style=" stroke:none;fill-rule:evenodd;fill:rgb(100%,100%,100%);fill-opacity:1;" d="M 41.511719 14.222656 C 41.511719 15.136719 41.277344 15.824219 40.753906 16.394531 C 40.289062 16.851562 39.765625 17.082031 39.070312 17.082031 C 38.371094 17.082031 37.847656 16.851562 37.558594 16.335938 L 37.558594 19.140625 L 36.335938 19.140625 L 36.335938 13.421875 C 36.335938 12.847656 36.335938 12.277344 36.277344 11.648438 L 37.324219 11.648438 L 37.382812 12.503906 C 37.789062 11.875 38.371094 11.53125 39.1875 11.53125 C 39.824219 11.53125 40.347656 11.761719 40.753906 12.277344 C 41.277344 12.734375 41.511719 13.363281 41.511719 14.222656 Z M 40.289062 14.222656 C 40.289062 13.707031 40.175781 13.25 39.941406 12.960938 C 39.710938 12.621094 39.359375 12.449219 38.894531 12.449219 C 38.605469 12.449219 38.3125 12.5625 38.082031 12.734375 C 37.847656 12.90625 37.675781 13.191406 37.617188 13.476562 C 37.558594 13.648438 37.558594 13.761719 37.558594 13.820312 L 37.558594 14.734375 C 37.558594 15.136719 37.675781 15.421875 37.90625 15.707031 C 38.140625 15.992188 38.488281 16.109375 38.835938 16.109375 C 39.300781 16.109375 39.652344 15.9375 39.882812 15.59375 C 40.175781 15.25 40.289062 14.792969 40.289062 14.222656 Z M 40.289062 14.222656 "/>
<path style=" stroke:none;fill-rule:evenodd;fill:rgb(100%,100%,100%);fill-opacity:1;" d="M 48.488281 14.851562 C 48.488281 15.480469 48.253906 15.992188 47.847656 16.394531 C 47.382812 16.851562 46.6875 17.023438 45.8125 17.023438 C 45 17.023438 44.359375 16.851562 43.894531 16.566406 L 44.1875 15.59375 C 44.710938 15.878906 45.289062 16.050781 45.929688 16.050781 C 46.394531 16.050781 46.746094 15.9375 46.976562 15.765625 C 47.210938 15.535156 47.324219 15.308594 47.324219 14.964844 C 47.324219 14.679688 47.210938 14.390625 47.035156 14.222656 C 46.800781 13.992188 46.453125 13.820312 45.988281 13.648438 C 44.652344 13.191406 44.011719 12.449219 44.011719 11.53125 C 44.011719 10.902344 44.246094 10.445312 44.710938 10.046875 C 45.175781 9.644531 45.753906 9.472656 46.570312 9.472656 C 47.265625 9.472656 47.789062 9.585938 48.253906 9.816406 L 47.964844 10.789062 C 47.558594 10.558594 47.09375 10.445312 46.511719 10.445312 C 46.105469 10.445312 45.753906 10.558594 45.523438 10.730469 C 45.347656 10.902344 45.234375 11.132812 45.234375 11.417969 C 45.234375 11.703125 45.347656 11.933594 45.582031 12.160156 C 45.753906 12.332031 46.164062 12.503906 46.6875 12.734375 C 47.324219 12.960938 47.789062 13.304688 48.140625 13.648438 C 48.3125 13.933594 48.488281 14.335938 48.488281 14.851562 Z M 48.488281 14.851562 "/>
<path style=" stroke:none;fill-rule:evenodd;fill:rgb(100%,100%,100%);fill-opacity:1;" d="M 52.441406 12.503906 L 51.105469 12.503906 L 51.105469 15.078125 C 51.105469 15.707031 51.335938 16.050781 51.800781 16.050781 C 52.035156 16.050781 52.210938 16.050781 52.324219 15.992188 L 52.382812 16.910156 C 52.152344 17.023438 51.859375 17.023438 51.453125 17.023438 C 50.988281 17.023438 50.582031 16.910156 50.347656 16.625 C 50.058594 16.335938 49.941406 15.878906 49.941406 15.191406 L 49.941406 12.503906 L 49.128906 12.503906 L 49.128906 11.589844 L 49.941406 11.589844 L 49.941406 10.617188 L 51.105469 10.273438 L 51.105469 11.589844 L 52.441406 11.589844 Z M 52.441406 12.503906 "/>
<path style=" stroke:none;fill-rule:evenodd;fill:rgb(100%,100%,100%);fill-opacity:1;" d="M 58.429688 14.222656 C 58.429688 15.023438 58.199219 15.707031 57.734375 16.222656 C 57.210938 16.738281 56.570312 17.023438 55.753906 17.023438 C 54.941406 17.023438 54.300781 16.738281 53.835938 16.222656 C 53.371094 15.707031 53.140625 15.078125 53.140625 14.277344 C 53.140625 13.476562 53.371094 12.789062 53.894531 12.277344 C 54.359375 11.761719 55.058594 11.476562 55.871094 11.476562 C 56.6875 11.476562 57.324219 11.761719 57.789062 12.277344 C 58.199219 12.789062 58.429688 13.421875 58.429688 14.222656 Z M 57.152344 14.277344 C 57.152344 13.761719 57.035156 13.363281 56.800781 13.019531 C 56.570312 12.621094 56.164062 12.390625 55.699219 12.390625 C 55.234375 12.390625 54.824219 12.621094 54.59375 13.019531 C 54.359375 13.363281 54.246094 13.820312 54.246094 14.277344 C 54.246094 14.792969 54.359375 15.191406 54.59375 15.535156 C 54.824219 15.9375 55.234375 16.164062 55.699219 16.164062 C 56.164062 16.164062 56.511719 15.9375 56.800781 15.535156 C 57.035156 15.191406 57.152344 14.734375 57.152344 14.277344 Z M 57.152344 14.277344 "/>
<path style=" stroke:none;fill-rule:evenodd;fill:rgb(100%,100%,100%);fill-opacity:1;" d="M 62.324219 12.621094 C 62.210938 12.621094 62.09375 12.5625 61.917969 12.5625 C 61.511719 12.5625 61.164062 12.734375 60.929688 13.019531 C 60.753906 13.304688 60.640625 13.648438 60.640625 14.050781 L 60.640625 16.851562 L 59.417969 16.851562 L 59.417969 13.191406 C 59.417969 12.5625 59.417969 12.046875 59.359375 11.53125 L 60.40625 11.53125 L 60.464844 12.5625 L 60.523438 12.5625 C 60.640625 12.21875 60.871094 11.933594 61.105469 11.703125 C 61.394531 11.53125 61.6875 11.417969 61.976562 11.417969 L 62.265625 11.417969 L 62.265625 12.621094 Z M 62.324219 12.621094 "/>
<path style=" stroke:none;fill-rule:evenodd;fill:rgb(100%,100%,100%);fill-opacity:1;" d="M 67.675781 13.992188 C 67.675781 14.222656 67.675781 14.390625 67.617188 14.507812 L 64.011719 14.507812 C 64.011719 15.023438 64.1875 15.421875 64.535156 15.707031 C 64.824219 15.9375 65.234375 16.109375 65.699219 16.109375 C 66.222656 16.109375 66.746094 16.050781 67.152344 15.878906 L 67.324219 16.679688 C 66.800781 16.910156 66.222656 17.023438 65.523438 17.023438 C 64.710938 17.023438 64.011719 16.792969 63.546875 16.28125 C 63.082031 15.824219 62.847656 15.136719 62.847656 14.335938 C 62.847656 13.535156 63.082031 12.847656 63.488281 12.332031 C 63.953125 11.761719 64.59375 11.476562 65.40625 11.476562 C 66.164062 11.476562 66.800781 11.761719 67.152344 12.332031 C 67.558594 12.789062 67.675781 13.363281 67.675781 13.992188 Z M 66.570312 13.707031 C 66.570312 13.363281 66.511719 13.078125 66.335938 12.789062 C 66.105469 12.449219 65.8125 12.277344 65.40625 12.277344 C 65 12.277344 64.710938 12.449219 64.476562 12.734375 C 64.300781 12.960938 64.1875 13.304688 64.128906 13.648438 L 66.570312 13.648438 Z M 66.570312 13.707031 "/>
<path style=" stroke:none;fill-rule:evenodd;fill:rgb(100%,100%,100%);fill-opacity:1;" d="M 24.992188 7.210938 C 24.769531 7.210938 24.5625 7.183594 24.375 7.132812 C 24.1875 7.082031 24.023438 7.003906 23.886719 6.894531 C 23.75 6.789062 23.640625 6.65625 23.566406 6.496094 C 23.488281 6.332031 23.449219 6.140625 23.449219 5.917969 L 23.925781 5.917969 C 23.929688 6.082031 23.960938 6.222656 24.023438 6.335938 C 24.082031 6.453125 24.164062 6.546875 24.261719 6.617188 C 24.363281 6.6875 24.476562 6.738281 24.609375 6.769531 C 24.742188 6.796875 24.886719 6.8125 25.035156 6.8125 C 25.164062 6.8125 25.285156 6.796875 25.394531 6.761719 C 25.507812 6.722656 25.605469 6.671875 25.6875 6.605469 C 25.769531 6.539062 25.832031 6.457031 25.878906 6.363281 C 25.925781 6.269531 25.949219 6.164062 25.949219 6.046875 C 25.949219 5.914062 25.925781 5.804688 25.871094 5.71875 C 25.820312 5.636719 25.75 5.570312 25.664062 5.523438 C 25.578125 5.476562 25.480469 5.445312 25.367188 5.429688 C 25.253906 5.410156 25.132812 5.402344 25.007812 5.402344 C 24.957031 5.402344 24.898438 5.402344 24.832031 5.40625 C 24.765625 5.40625 24.710938 5.410156 24.675781 5.414062 L 24.675781 5.011719 C 24.714844 5.019531 24.773438 5.023438 24.839844 5.023438 L 25.007812 5.023438 C 25.128906 5.023438 25.238281 5.011719 25.335938 4.988281 C 25.433594 4.964844 25.519531 4.929688 25.59375 4.878906 C 25.664062 4.828125 25.71875 4.757812 25.757812 4.675781 C 25.800781 4.589844 25.820312 4.488281 25.820312 4.363281 C 25.820312 4.25 25.796875 4.15625 25.753906 4.082031 C 25.710938 4.003906 25.652344 3.945312 25.578125 3.898438 C 25.5 3.851562 25.414062 3.816406 25.320312 3.796875 C 25.222656 3.777344 25.125 3.765625 25.019531 3.765625 C 24.742188 3.765625 24.527344 3.824219 24.371094 3.945312 C 24.214844 4.0625 24.121094 4.253906 24.09375 4.523438 L 23.617188 4.523438 C 23.625 4.328125 23.664062 4.15625 23.738281 4.011719 C 23.816406 3.863281 23.914062 3.746094 24.039062 3.652344 C 24.167969 3.554688 24.3125 3.484375 24.484375 3.4375 C 24.652344 3.390625 24.835938 3.363281 25.035156 3.363281 C 25.210938 3.363281 25.378906 3.382812 25.535156 3.425781 C 25.691406 3.464844 25.824219 3.523438 25.941406 3.605469 C 26.054688 3.6875 26.144531 3.792969 26.210938 3.917969 C 26.277344 4.042969 26.3125 4.191406 26.3125 4.363281 C 26.3125 4.464844 26.292969 4.554688 26.257812 4.640625 C 26.222656 4.726562 26.179688 4.804688 26.121094 4.875 C 26.0625 4.941406 25.996094 5 25.921875 5.050781 C 25.847656 5.101562 25.769531 5.136719 25.695312 5.160156 L 25.695312 5.175781 C 25.816406 5.199219 25.925781 5.242188 26.019531 5.296875 C 26.113281 5.355469 26.191406 5.421875 26.253906 5.5 C 26.316406 5.582031 26.363281 5.667969 26.394531 5.765625 C 26.425781 5.859375 26.441406 5.957031 26.441406 6.058594 C 26.441406 6.171875 26.417969 6.292969 26.363281 6.429688 C 26.3125 6.5625 26.226562 6.6875 26.109375 6.804688 C 25.992188 6.921875 25.84375 7.015625 25.660156 7.09375 C 25.476562 7.171875 25.253906 7.210938 24.992188 7.210938 Z M 27.761719 7.183594 C 27.640625 7.183594 27.523438 7.171875 27.414062 7.144531 C 27.308594 7.121094 27.210938 7.078125 27.128906 7.015625 C 27.046875 6.957031 26.984375 6.878906 26.9375 6.785156 C 26.890625 6.691406 26.867188 6.578125 26.867188 6.441406 C 26.867188 6.292969 26.890625 6.167969 26.945312 6.074219 C 26.996094 5.976562 27.066406 5.898438 27.152344 5.839844 C 27.238281 5.777344 27.335938 5.734375 27.445312 5.703125 C 27.554688 5.671875 27.667969 5.644531 27.78125 5.625 C 27.902344 5.601562 28.019531 5.582031 28.128906 5.570312 C 28.238281 5.558594 28.335938 5.542969 28.421875 5.519531 C 28.503906 5.496094 28.570312 5.464844 28.621094 5.421875 C 28.667969 5.378906 28.691406 5.316406 28.691406 5.234375 C 28.691406 5.136719 28.675781 5.058594 28.636719 5 C 28.601562 4.945312 28.554688 4.898438 28.496094 4.867188 C 28.4375 4.835938 28.375 4.816406 28.300781 4.804688 C 28.230469 4.796875 28.160156 4.789062 28.089844 4.789062 C 27.902344 4.789062 27.746094 4.824219 27.621094 4.894531 C 27.496094 4.964844 27.425781 5.101562 27.414062 5.296875 L 26.972656 5.296875 C 26.976562 5.128906 27.011719 4.992188 27.074219 4.878906 C 27.136719 4.765625 27.222656 4.671875 27.328125 4.601562 C 27.429688 4.53125 27.550781 4.480469 27.683594 4.449219 C 27.820312 4.421875 27.964844 4.40625 28.117188 4.40625 C 28.238281 4.40625 28.359375 4.414062 28.480469 4.429688 C 28.601562 4.449219 28.710938 4.484375 28.808594 4.535156 C 28.90625 4.589844 28.984375 4.664062 29.042969 4.761719 C 29.101562 4.855469 29.132812 4.980469 29.132812 5.136719 L 29.132812 6.503906 C 29.132812 6.609375 29.136719 6.683594 29.148438 6.730469 C 29.164062 6.78125 29.203125 6.804688 29.273438 6.804688 C 29.304688 6.804688 29.351562 6.796875 29.410156 6.777344 L 29.410156 7.117188 C 29.332031 7.164062 29.226562 7.183594 29.089844 7.183594 C 28.976562 7.183594 28.882812 7.152344 28.816406 7.089844 C 28.746094 7.027344 28.714844 6.921875 28.714844 6.777344 C 28.589844 6.921875 28.449219 7.027344 28.285156 7.089844 C 28.125 7.152344 27.949219 7.183594 27.761719 7.183594 Z M 27.859375 6.804688 C 28.007812 6.804688 28.132812 6.785156 28.238281 6.746094 C 28.34375 6.703125 28.425781 6.65625 28.492188 6.59375 C 28.558594 6.535156 28.609375 6.46875 28.640625 6.398438 C 28.671875 6.328125 28.6875 6.261719 28.6875 6.203125 L 28.6875 5.753906 C 28.632812 5.796875 28.558594 5.828125 28.46875 5.847656 C 28.375 5.863281 28.28125 5.878906 28.183594 5.890625 C 28.082031 5.90625 27.984375 5.921875 27.882812 5.933594 C 27.78125 5.949219 27.691406 5.972656 27.609375 6.003906 C 27.527344 6.039062 27.464844 6.089844 27.414062 6.152344 C 27.363281 6.214844 27.335938 6.300781 27.335938 6.414062 C 27.335938 6.484375 27.351562 6.546875 27.382812 6.59375 C 27.410156 6.644531 27.449219 6.683594 27.496094 6.714844 C 27.542969 6.746094 27.597656 6.769531 27.660156 6.78125 C 27.722656 6.796875 27.789062 6.804688 27.859375 6.804688 Z M 29.832031 4.464844 L 31.683594 4.464844 L 31.683594 4.851562 L 30.277344 4.851562 L 30.277344 7.128906 L 29.832031 7.128906 Z M 32.058594 4.464844 L 32.5 4.464844 L 32.5 4.828125 L 32.511719 4.828125 C 32.585938 4.679688 32.699219 4.570312 32.859375 4.503906 C 33.015625 4.4375 33.1875 4.40625 33.375 4.40625 C 33.585938 4.40625 33.765625 4.441406 33.921875 4.519531 C 34.078125 4.59375 34.207031 4.695312 34.308594 4.824219 C 34.414062 4.953125 34.488281 5.101562 34.542969 5.269531 C 34.59375 5.4375 34.621094 5.617188 34.621094 5.804688 C 34.621094 5.996094 34.59375 6.175781 34.546875 6.34375 C 34.496094 6.507812 34.417969 6.65625 34.316406 6.78125 C 34.210938 6.90625 34.082031 7.003906 33.925781 7.078125 C 33.773438 7.148438 33.59375 7.183594 33.386719 7.183594 C 33.316406 7.183594 33.242188 7.179688 33.160156 7.164062 C 33.082031 7.148438 33 7.128906 32.921875 7.097656 C 32.839844 7.066406 32.765625 7.023438 32.691406 6.972656 C 32.621094 6.917969 32.5625 6.851562 32.511719 6.773438 L 32.5 6.773438 L 32.5 8.140625 L 32.058594 8.140625 Z M 33.339844 6.804688 C 33.488281 6.804688 33.617188 6.773438 33.722656 6.714844 C 33.824219 6.65625 33.910156 6.582031 33.972656 6.484375 C 34.035156 6.386719 34.082031 6.277344 34.109375 6.15625 C 34.136719 6.03125 34.148438 5.90625 34.148438 5.773438 C 34.148438 5.652344 34.132812 5.53125 34.101562 5.410156 C 34.066406 5.292969 34.015625 5.1875 33.949219 5.09375 C 33.878906 5 33.792969 4.929688 33.6875 4.875 C 33.582031 4.816406 33.457031 4.789062 33.3125 4.789062 C 33.164062 4.789062 33.035156 4.820312 32.929688 4.878906 C 32.824219 4.9375 32.742188 5.011719 32.675781 5.105469 C 32.609375 5.203125 32.558594 5.308594 32.53125 5.429688 C 32.5 5.550781 32.484375 5.671875 32.484375 5.792969 C 32.484375 5.925781 32.5 6.050781 32.53125 6.171875 C 32.566406 6.292969 32.613281 6.402344 32.683594 6.496094 C 32.75 6.585938 32.839844 6.660156 32.945312 6.71875 C 33.054688 6.773438 33.183594 6.804688 33.339844 6.804688 Z M 35.421875 8.1875 C 35.371094 8.1875 35.316406 8.183594 35.265625 8.179688 C 35.210938 8.171875 35.160156 8.160156 35.113281 8.140625 L 35.113281 7.742188 C 35.15625 7.753906 35.199219 7.769531 35.242188 7.78125 C 35.285156 7.796875 35.328125 7.800781 35.375 7.800781 C 35.464844 7.800781 35.539062 7.78125 35.59375 7.742188 C 35.648438 7.699219 35.699219 7.640625 35.742188 7.558594 L 35.925781 7.113281 L 34.851562 4.464844 L 35.351562 4.464844 L 36.144531 6.644531 L 36.152344 6.644531 L 36.914062 4.464844 L 37.382812 4.464844 L 36.207031 7.476562 C 36.152344 7.609375 36.101562 7.71875 36.050781 7.808594 C 36 7.898438 35.945312 7.96875 35.882812 8.027344 C 35.824219 8.082031 35.753906 8.125 35.679688 8.148438 C 35.605469 8.175781 35.519531 8.1875 35.421875 8.1875 Z M 38.753906 7.183594 C 38.394531 7.183594 38.113281 7.105469 37.914062 6.949219 C 37.710938 6.789062 37.601562 6.566406 37.582031 6.273438 L 38.03125 6.273438 C 38.046875 6.46875 38.121094 6.609375 38.253906 6.695312 C 38.386719 6.78125 38.550781 6.824219 38.75 6.824219 C 38.960938 6.824219 39.125 6.78125 39.242188 6.691406 C 39.355469 6.601562 39.414062 6.488281 39.414062 6.351562 C 39.414062 6.21875 39.371094 6.113281 39.28125 6.035156 C 39.195312 5.960938 39.046875 5.921875 38.839844 5.921875 L 38.476562 5.921875 L 38.476562 5.566406 L 38.765625 5.566406 C 38.921875 5.566406 39.054688 5.535156 39.167969 5.472656 C 39.28125 5.410156 39.335938 5.296875 39.335938 5.140625 C 39.335938 5.042969 39.289062 4.953125 39.191406 4.878906 C 39.09375 4.804688 38.953125 4.765625 38.765625 4.765625 C 38.683594 4.765625 38.605469 4.773438 38.527344 4.789062 C 38.449219 4.808594 38.378906 4.835938 38.316406 4.875 C 38.253906 4.910156 38.199219 4.960938 38.15625 5.023438 C 38.117188 5.085938 38.089844 5.160156 38.078125 5.25 L 37.628906 5.25 C 37.640625 5.085938 37.679688 4.949219 37.75 4.839844 C 37.820312 4.730469 37.90625 4.644531 38.011719 4.582031 C 38.117188 4.519531 38.234375 4.472656 38.367188 4.445312 C 38.5 4.417969 38.632812 4.40625 38.769531 4.40625 C 38.910156 4.40625 39.039062 4.417969 39.164062 4.445312 C 39.285156 4.472656 39.390625 4.515625 39.484375 4.578125 C 39.578125 4.636719 39.648438 4.710938 39.703125 4.800781 C 39.757812 4.890625 39.785156 4.996094 39.785156 5.121094 C 39.785156 5.273438 39.742188 5.398438 39.652344 5.496094 C 39.5625 5.59375 39.460938 5.652344 39.351562 5.675781 L 39.351562 5.6875 C 39.414062 5.695312 39.476562 5.71875 39.539062 5.75 C 39.601562 5.777344 39.65625 5.820312 39.707031 5.875 C 39.753906 5.925781 39.796875 5.992188 39.828125 6.070312 C 39.859375 6.148438 39.875 6.238281 39.875 6.339844 C 39.875 6.484375 39.84375 6.609375 39.78125 6.714844 C 39.71875 6.824219 39.632812 6.910156 39.527344 6.980469 C 39.425781 7.046875 39.304688 7.097656 39.171875 7.132812 C 39.035156 7.167969 38.898438 7.183594 38.753906 7.183594 Z M 40.40625 4.464844 L 40.851562 4.464844 L 40.851562 6.640625 L 42.128906 4.464844 L 42.699219 4.464844 L 42.699219 7.128906 L 42.253906 7.128906 L 42.253906 4.957031 L 40.976562 7.128906 L 40.40625 7.128906 Z M 44.023438 4.851562 L 43.054688 4.851562 L 43.054688 4.464844 L 45.4375 4.464844 L 45.4375 4.851562 L 44.46875 4.851562 L 44.46875 7.128906 L 44.023438 7.128906 Z M 46.945312 7.183594 C 46.726562 7.183594 46.539062 7.148438 46.375 7.082031 C 46.214844 7.011719 46.078125 6.917969 45.96875 6.792969 C 45.863281 6.667969 45.78125 6.523438 45.726562 6.351562 C 45.671875 6.179688 45.644531 5.992188 45.644531 5.789062 C 45.644531 5.589844 45.675781 5.40625 45.738281 5.234375 C 45.804688 5.066406 45.890625 4.917969 46.003906 4.796875 C 46.117188 4.671875 46.253906 4.578125 46.40625 4.507812 C 46.5625 4.4375 46.734375 4.40625 46.917969 4.40625 C 47.15625 4.40625 47.359375 4.453125 47.515625 4.550781 C 47.675781 4.648438 47.800781 4.773438 47.898438 4.925781 C 47.996094 5.074219 48.0625 5.242188 48.097656 5.417969 C 48.132812 5.597656 48.148438 5.765625 48.140625 5.929688 L 46.117188 5.929688 C 46.113281 6.046875 46.128906 6.15625 46.160156 6.261719 C 46.191406 6.367188 46.242188 6.457031 46.308594 6.539062 C 46.378906 6.621094 46.46875 6.683594 46.578125 6.730469 C 46.683594 6.78125 46.8125 6.804688 46.960938 6.804688 C 47.148438 6.804688 47.300781 6.761719 47.421875 6.675781 C 47.542969 6.589844 47.621094 6.457031 47.660156 6.285156 L 48.101562 6.285156 C 48.039062 6.585938 47.910156 6.8125 47.707031 6.960938 C 47.503906 7.109375 47.25 7.183594 46.945312 7.183594 Z M 47.671875 5.542969 C 47.664062 5.441406 47.640625 5.339844 47.601562 5.25 C 47.558594 5.15625 47.507812 5.078125 47.4375 5.007812 C 47.371094 4.941406 47.289062 4.890625 47.199219 4.851562 C 47.105469 4.808594 47.003906 4.789062 46.890625 4.789062 C 46.777344 4.789062 46.671875 4.808594 46.578125 4.851562 C 46.488281 4.890625 46.40625 4.945312 46.34375 5.011719 C 46.277344 5.082031 46.222656 5.160156 46.183594 5.25 C 46.148438 5.34375 46.125 5.441406 46.117188 5.542969 Z M 50.058594 4.464844 L 51.308594 4.464844 C 51.425781 4.464844 51.539062 4.476562 51.648438 4.492188 C 51.761719 4.507812 51.859375 4.542969 51.945312 4.585938 C 52.03125 4.632812 52.101562 4.699219 52.15625 4.785156 C 52.207031 4.871094 52.234375 4.980469 52.234375 5.113281 C 52.234375 5.257812 52.199219 5.375 52.128906 5.464844 C 52.058594 5.554688 51.960938 5.628906 51.835938 5.6875 L 51.835938 5.691406 C 51.992188 5.722656 52.117188 5.792969 52.210938 5.90625 C 52.300781 6.019531 52.347656 6.167969 52.347656 6.34375 C 52.347656 6.457031 52.328125 6.5625 52.289062 6.660156 C 52.25 6.753906 52.191406 6.839844 52.117188 6.90625 C 52.046875 6.976562 51.957031 7.03125 51.855469 7.070312 C 51.753906 7.109375 51.644531 7.128906 51.527344 7.128906 L 50.058594 7.128906 Z M 51.445312 6.757812 C 51.589844 6.757812 51.699219 6.714844 51.777344 6.632812 C 51.851562 6.546875 51.886719 6.441406 51.886719 6.316406 C 51.886719 6.195312 51.847656 6.097656 51.769531 6.027344 C 51.6875 5.953125 51.554688 5.917969 51.363281 5.917969 L 50.496094 5.917969 L 50.496094 6.757812 Z M 51.261719 5.558594 C 51.453125 5.558594 51.585938 5.523438 51.660156 5.453125 C 51.734375 5.386719 51.773438 5.296875 51.773438 5.183594 C 51.773438 5.070312 51.738281 4.988281 51.664062 4.925781 C 51.589844 4.867188 51.457031 4.835938 51.261719 4.835938 L 50.496094 4.835938 L 50.496094 5.558594 Z M 51.261719 5.558594 "/>
</g>
</svg>
