<?xml version="1.0" encoding="UTF-8"?>
<svg xmlns="http://www.w3.org/2000/svg" xmlns:xlink="http://www.w3.org/1999/xlink" width="22pt" height="22pt" viewBox="0 0 22 22" version="1.1">
<g id="surface1">
<path style="fill:none;stroke-width:1;stroke-linecap:butt;stroke-linejoin:miter;stroke:rgb(9.411765%,46.666667%,94.901961%);stroke-opacity:1;stroke-miterlimit:4;" d="M 12 22.5 C 19.990057 22.5 22.5 19.99858 22.5 12.034091 C 22.5 4.048295 19.96875 1.5 12 1.5 C 4.03125 1.5 1.5 4.048295 1.5 12.034091 C 1.5 19.99858 4.009943 22.5 12 22.5 Z M 12 22.5 " transform="matrix(0.916667,0,0,0.916667,0,0)"/>
<path style=" stroke:none;fill-rule:evenodd;fill:rgb(9.411765%,46.666667%,94.901961%);fill-opacity:1;" d="M 14.925781 13.917969 L 15.371094 11.003906 L 12.574219 11.003906 L 12.574219 9.113281 C 12.574219 8.3125 12.964844 7.535156 14.21875 7.535156 L 15.488281 7.535156 L 15.488281 5.054688 C 15.488281 5.054688 14.335938 4.859375 13.234375 4.859375 C 10.929688 4.859375 9.425781 6.253906 9.425781 8.78125 L 9.425781 11.003906 L 6.863281 11.003906 L 6.863281 13.917969 L 9.425781 13.917969 L 9.425781 20.167969 L 12.574219 20.167969 L 12.574219 13.917969 Z M 14.925781 13.917969 "/>
</g>
</svg>
