<?xml version="1.0" encoding="UTF-8"?>
<svg xmlns="http://www.w3.org/2000/svg" xmlns:xlink="http://www.w3.org/1999/xlink" width="22pt" height="22pt" viewBox="0 0 22 22" version="1.1">
<g id="surface1">
<path style="fill:none;stroke-width:1;stroke-linecap:butt;stroke-linejoin:miter;stroke:rgb(53.333333%,53.333333%,53.333333%);stroke-opacity:1;stroke-miterlimit:4;" d="M 11.998324 22.500139 C 19.99283 22.500139 22.500139 20.001582 22.500139 12.03333 C 22.500139 4.047575 19.970952 1.500884 11.998324 1.500884 C 4.030072 1.500884 1.500884 4.047575 1.500884 12.03333 C 1.500884 20.001582 4.008193 22.500139 11.998324 22.500139 Z M 11.998324 22.500139 " transform="matrix(0.892703,0,0,0.892703,0,0)"/>
<path style=" stroke:none;fill-rule:evenodd;fill:rgb(53.333333%,53.333333%,53.333333%);fill-opacity:1;" d="M 14.53125 13.554688 L 14.96875 10.714844 L 12.246094 10.714844 L 12.246094 8.875 C 12.246094 8.097656 12.625 7.339844 13.847656 7.339844 L 15.085938 7.339844 L 15.085938 4.925781 C 15.085938 4.925781 13.960938 4.730469 12.886719 4.730469 C 10.644531 4.730469 9.179688 6.089844 9.179688 8.554688 L 9.179688 10.714844 L 6.683594 10.714844 L 6.683594 13.554688 L 9.179688 13.554688 L 9.179688 19.636719 L 12.246094 19.636719 L 12.246094 13.554688 Z M 14.53125 13.554688 "/>
</g>
</svg>
