<?xml version="1.0" encoding="UTF-8"?>
<svg xmlns="http://www.w3.org/2000/svg" xmlns:xlink="http://www.w3.org/1999/xlink" width="75pt" height="22pt" viewBox="0 0 75 22" version="1.1">
<defs>
<linearGradient id="linear0" gradientUnits="userSpaceOnUse" x1="0.295315" y1="-0.0609573" x2="0.550941" y2="0.92156" gradientTransform="matrix(12.5,0,0,13.203125,6.25,4.398438)">
<stop offset="0" style="stop-color:rgb(0%,40.784314%,51.764706%);stop-opacity:1;"/>
<stop offset="1" style="stop-color:rgb(54.117647%,81.960784%,81.568627%);stop-opacity:1;"/>
</linearGradient>
<linearGradient id="linear1" gradientUnits="userSpaceOnUse" x1="-0.0752792" y1="0.15759" x2="0.91537" y2="0.862504" gradientTransform="matrix(8.847656,0,0,6.53125,6.375,4.742188)">
<stop offset="0" style="stop-color:rgb(14.117647%,73.333333%,71.372549%);stop-opacity:1;"/>
<stop offset="1" style="stop-color:rgb(85.882353%,90.196078%,57.254902%);stop-opacity:1;"/>
</linearGradient>
<linearGradient id="linear2" gradientUnits="userSpaceOnUse" x1="0.499404" y1="1.057548" x2="0.499404" y2="-0.031274" gradientTransform="matrix(5.402344,0,0,4.074219,13.097656,9.152344)">
<stop offset="0" style="stop-color:rgb(98.823529%,75.294118%,44.705882%);stop-opacity:1;"/>
<stop offset="1" style="stop-color:rgb(96.078431%,54.117647%,35.686275%);stop-opacity:1;"/>
</linearGradient>
<linearGradient id="linear3" gradientUnits="userSpaceOnUse" x1="0.111493" y1="1.178371" x2="0.904368" y2="0.121026" gradientTransform="matrix(8.734375,0,0,6.476563,6.433594,11.214844)">
<stop offset="0" style="stop-color:rgb(44.313725%,16.862745%,56.078431%);stop-opacity:1;"/>
<stop offset="1" style="stop-color:rgb(91.764706%,11.372549%,15.294118%);stop-opacity:1;"/>
</linearGradient>
</defs>
<g id="surface1">
<path style=" stroke:none;fill-rule:evenodd;fill:rgb(13.333333%,13.333333%,13.333333%);fill-opacity:1;" d="M 2.679688 0 L 72.320312 0 C 73.800781 0 75 1.183594 75 2.640625 L 75 19.359375 C 75 20.816406 73.800781 22 72.320312 22 L 2.679688 22 C 1.199219 22 0 20.816406 0 19.359375 L 0 2.640625 C 0 1.183594 1.199219 0 2.679688 0 Z M 2.679688 0 "/>
<path style=" stroke:none;fill-rule:evenodd;fill:url(#linear0);" d="M 6.25 10.558594 L 6.25 5.28125 C 6.25 4.683594 6.535156 4.398438 7.144531 4.398438 C 7.105469 4.398438 7.21875 4.457031 7.144531 4.398438 L 18.75 10.558594 C 18.636719 10.660156 18.75 10.832031 18.75 11.441406 C 18.75 11.167969 18.636719 11.339844 18.75 11.441406 L 7.144531 17.601562 C 7.277344 17.488281 7.105469 17.601562 7.144531 17.601562 C 6.535156 17.601562 6.25 17.316406 6.25 16.71875 Z M 6.25 10.558594 "/>
<path style=" stroke:none;fill-rule:evenodd;fill:url(#linear1);" d="M 13.097656 11.273438 L 6.375 4.742188 L 6.492188 4.742188 C 6.777344 4.742188 6.894531 4.800781 7.066406 4.910156 L 15.222656 9.261719 Z M 13.097656 11.273438 "/>
<path style=" stroke:none;fill-rule:evenodd;fill:url(#linear2);" d="M 15.167969 13.226562 L 13.097656 11.214844 L 15.222656 9.152344 L 18.152344 10.714844 C 18.382812 10.824219 18.5 10.992188 18.5 11.160156 C 18.5 11.328125 18.382812 11.496094 18.152344 11.605469 Z M 15.167969 13.226562 "/>
<path style=" stroke:none;fill-rule:evenodd;fill:url(#linear3);" d="M 6.433594 17.691406 L 13.097656 11.214844 L 15.167969 13.226562 L 7.066406 17.523438 C 6.894531 17.632812 6.777344 17.691406 6.433594 17.691406 Z M 6.433594 17.691406 "/>
<path style=" stroke:none;fill-rule:evenodd;fill:rgb(100%,100%,100%);fill-opacity:1;" d="M 41.132812 15.675781 C 40.84375 15.453125 40.617188 15.0625 40.5 14.839844 L 41.417969 14.449219 C 41.476562 14.5625 41.59375 14.726562 41.707031 14.894531 C 41.9375 15.117188 42.28125 15.34375 42.625 15.34375 C 42.96875 15.34375 43.371094 15.175781 43.601562 14.894531 C 43.773438 14.617188 43.890625 14.335938 43.890625 13.945312 L 43.890625 13.613281 C 43.199219 14.449219 41.765625 14.335938 40.960938 13.445312 C 40.097656 12.550781 40.097656 11.046875 40.960938 10.152344 C 41.820312 9.316406 43.085938 9.203125 43.832031 9.984375 L 43.832031 9.59375 L 44.808594 9.59375 L 44.808594 13.78125 C 44.808594 14.839844 44.40625 15.453125 43.890625 15.84375 C 43.546875 16.125 43.027344 16.234375 42.570312 16.234375 C 42.050781 16.179688 41.535156 16.011719 41.132812 15.675781 Z M 65.203125 15.898438 L 66.179688 13.667969 L 64.457031 9.816406 L 65.433594 9.816406 L 66.640625 12.550781 L 67.84375 9.816406 L 68.820312 9.816406 L 66.179688 15.898438 Z M 60.550781 13.78125 C 60.261719 13.5 60.148438 13.109375 60.148438 12.71875 C 60.148438 12.382812 60.261719 12.050781 60.492188 11.828125 C 60.894531 11.4375 61.46875 11.269531 62.101562 11.269531 C 62.503906 11.269531 62.847656 11.324219 63.132812 11.492188 C 63.132812 10.820312 62.558594 10.542969 62.101562 10.542969 C 61.699219 10.542969 61.296875 10.765625 61.125 11.15625 L 60.261719 10.820312 C 60.433594 10.429688 60.894531 9.707031 62.042969 9.707031 C 62.617188 9.707031 63.191406 9.875 63.535156 10.265625 C 63.882812 10.65625 63.996094 11.101562 63.996094 11.714844 L 63.996094 14.058594 L 63.019531 14.058594 L 63.019531 13.667969 C 62.90625 13.835938 62.675781 13.945312 62.503906 14.058594 C 62.273438 14.171875 61.984375 14.226562 61.699219 14.226562 C 61.355469 14.171875 60.835938 14.058594 60.550781 13.78125 Z M 29.929688 11.769531 C 29.929688 10.65625 30.792969 9.425781 32.34375 9.425781 C 33.835938 9.425781 34.753906 10.65625 34.753906 11.769531 C 34.753906 12.886719 33.894531 14.113281 32.34375 14.113281 C 30.792969 14.113281 29.929688 12.886719 29.929688 11.769531 Z M 35.101562 11.769531 C 35.101562 10.65625 35.960938 9.425781 37.511719 9.425781 C 39.007812 9.425781 39.925781 10.65625 39.925781 11.769531 C 39.925781 12.886719 39.0625 14.113281 37.511719 14.113281 C 36.019531 14.113281 35.101562 12.886719 35.101562 11.769531 Z M 23.4375 13 C 22.003906 11.601562 22.058594 9.316406 23.496094 7.863281 C 24.242188 7.140625 25.160156 6.804688 26.136719 6.804688 C 27.058594 6.804688 27.976562 7.140625 28.667969 7.808594 L 27.976562 8.535156 C 26.941406 7.53125 25.277344 7.585938 24.300781 8.589844 C 23.265625 9.648438 23.265625 11.269531 24.300781 12.328125 C 25.335938 13.390625 27.058594 13.445312 28.089844 12.382812 C 28.4375 12.050781 28.550781 11.601562 28.609375 11.15625 L 26.195312 11.15625 L 26.195312 10.152344 L 29.585938 10.152344 C 29.644531 10.375 29.644531 10.65625 29.644531 10.933594 C 29.644531 11.769531 29.296875 12.609375 28.722656 13.164062 C 28.089844 13.78125 27.171875 14.113281 26.253906 14.113281 C 25.21875 14.058594 24.183594 13.722656 23.4375 13 Z M 47.738281 13.390625 C 46.878906 12.496094 46.878906 10.988281 47.738281 10.039062 C 48.601562 9.148438 50.035156 9.148438 50.839844 10.039062 C 51.128906 10.320312 51.300781 10.710938 51.472656 11.101562 L 48.3125 12.382812 C 48.484375 12.773438 48.886719 13.109375 49.460938 13.109375 C 49.980469 13.109375 50.324219 12.941406 50.667969 12.441406 L 51.53125 13 C 51.414062 13.109375 51.300781 13.222656 51.242188 13.332031 C 50.265625 14.28125 48.601562 14.28125 47.738281 13.390625 Z M 53.714844 14.058594 L 53.714844 7.863281 L 55.78125 7.863281 C 56.988281 7.863281 57.964844 8.703125 57.964844 9.707031 C 57.964844 10.710938 57.101562 11.546875 56.011719 11.546875 L 54.746094 11.546875 L 54.746094 14.003906 L 53.714844 14.003906 Z M 58.539062 14.058594 L 58.539062 7.863281 L 59.515625 7.863281 L 59.515625 14.058594 Z M 45.554688 13.945312 L 45.554688 7.027344 L 46.589844 7.027344 L 46.589844 13.945312 Z M 63.078125 12.21875 C 62.847656 12.050781 62.503906 11.992188 62.15625 11.992188 C 61.46875 11.992188 61.066406 12.328125 61.066406 12.71875 C 61.066406 13.109375 61.46875 13.332031 61.871094 13.332031 C 62.445312 13.332031 63.078125 12.886719 63.078125 12.21875 Z M 33.664062 11.769531 C 33.664062 11.101562 33.203125 10.375 32.34375 10.375 C 31.480469 10.375 31.023438 11.101562 31.023438 11.769531 C 31.023438 12.441406 31.480469 13.164062 32.34375 13.164062 C 33.148438 13.164062 33.664062 12.441406 33.664062 11.769531 Z M 38.835938 11.769531 C 38.835938 11.101562 38.375 10.375 37.511719 10.375 C 36.652344 10.375 36.191406 11.101562 36.191406 11.769531 C 36.191406 12.441406 36.652344 13.164062 37.511719 13.164062 C 38.375 13.164062 38.835938 12.441406 38.835938 11.769531 Z M 43.945312 12.160156 C 43.945312 12.105469 43.945312 12.050781 44.003906 11.992188 L 44.003906 11.492188 C 44.003906 11.4375 43.945312 11.324219 43.945312 11.269531 C 43.773438 10.710938 43.257812 10.320312 42.742188 10.320312 C 42.050781 10.320312 41.476562 10.988281 41.476562 11.714844 C 41.476562 12.496094 42.050781 13.109375 42.796875 13.109375 C 43.257812 13.164062 43.71875 12.773438 43.945312 12.160156 Z M 48.140625 11.660156 L 50.265625 10.765625 C 50.035156 10.375 49.691406 10.265625 49.40625 10.265625 C 48.542969 10.320312 48.027344 11.210938 48.140625 11.660156 Z M 56.929688 9.761719 C 56.929688 9.203125 56.472656 8.8125 55.839844 8.8125 L 54.691406 8.8125 L 54.691406 10.765625 L 55.894531 10.765625 C 56.472656 10.765625 56.929688 10.320312 56.929688 9.761719 Z M 56.929688 9.761719 "/>
</g>
</svg>
