<?xml version="1.0" encoding="UTF-8"?>
<svg xmlns="http://www.w3.org/2000/svg" xmlns:xlink="http://www.w3.org/1999/xlink" width="22pt" height="22pt" viewBox="0 0 22 22" version="1.1">
<g id="surface1">
<path style="fill:none;stroke-width:1;stroke-linecap:butt;stroke-linejoin:miter;stroke:rgb(53.333333%,53.333333%,53.333333%);stroke-opacity:1;stroke-miterlimit:4;" d="M 12 22.5 C 19.990057 22.5 22.5 19.99858 22.5 12.034091 C 22.5 4.048295 19.96875 1.5 12 1.5 C 4.03125 1.5 1.5 4.048295 1.5 12.034091 C 1.5 19.99858 4.009943 22.5 12 22.5 Z M 12 22.5 " transform="matrix(0.916667,0,0,0.916667,0,0)"/>
<path style=" stroke:none;fill-rule:evenodd;fill:rgb(53.333333%,53.333333%,53.333333%);fill-opacity:1;" d="M 11.8125 4.582031 C 12.839844 4.585938 13.085938 4.597656 13.644531 4.621094 C 14.328125 4.652344 14.796875 4.761719 15.203125 4.917969 C 15.625 5.085938 15.984375 5.304688 16.339844 5.660156 C 16.695312 6.015625 16.917969 6.375 17.082031 6.796875 C 17.238281 7.203125 17.347656 7.671875 17.378906 8.355469 C 17.40625 8.945312 17.414062 9.1875 17.417969 10.367188 L 17.417969 11.632812 C 17.414062 12.8125 17.40625 13.054688 17.378906 13.644531 C 17.347656 14.328125 17.238281 14.796875 17.082031 15.203125 C 16.917969 15.625 16.695312 15.984375 16.339844 16.339844 C 15.984375 16.695312 15.625 16.917969 15.203125 17.082031 C 14.796875 17.238281 14.328125 17.347656 13.644531 17.378906 C 13.023438 17.40625 12.785156 17.414062 11.4375 17.417969 L 10.5625 17.417969 C 9.214844 17.414062 8.976562 17.40625 8.355469 17.378906 C 7.671875 17.347656 7.203125 17.238281 6.796875 17.082031 C 6.375 16.917969 6.015625 16.695312 5.660156 16.339844 C 5.304688 15.984375 5.082031 15.625 4.917969 15.203125 C 4.761719 14.796875 4.652344 14.328125 4.621094 13.644531 C 4.597656 13.085938 4.585938 12.839844 4.585938 11.8125 L 4.585938 10.1875 C 4.585938 9.160156 4.597656 8.914062 4.621094 8.355469 C 4.652344 7.671875 4.761719 7.203125 4.917969 6.796875 C 5.085938 6.375 5.304688 6.015625 5.660156 5.660156 C 6.015625 5.304688 6.375 5.082031 6.796875 4.917969 C 7.203125 4.761719 7.671875 4.652344 8.355469 4.621094 C 8.914062 4.597656 9.160156 4.585938 10.1875 4.585938 Z M 11.796875 5.738281 L 10.203125 5.738281 C 9.195312 5.742188 8.960938 5.75 8.40625 5.777344 C 7.78125 5.804688 7.441406 5.910156 7.214844 5.996094 C 6.917969 6.113281 6.703125 6.253906 6.476562 6.476562 C 6.253906 6.703125 6.113281 6.917969 5.996094 7.214844 C 5.910156 7.441406 5.804688 7.78125 5.777344 8.40625 C 5.75 8.960938 5.742188 9.195312 5.738281 10.203125 L 5.738281 11.796875 C 5.742188 12.804688 5.75 13.039062 5.777344 13.59375 C 5.804688 14.21875 5.910156 14.558594 5.996094 14.785156 C 6.113281 15.082031 6.253906 15.296875 6.476562 15.523438 C 6.703125 15.746094 6.917969 15.886719 7.214844 16.003906 C 7.441406 16.089844 7.78125 16.195312 8.40625 16.222656 C 9.082031 16.253906 9.285156 16.261719 11 16.261719 L 11.222656 16.261719 C 12.734375 16.261719 12.949219 16.253906 13.59375 16.222656 C 14.21875 16.195312 14.558594 16.089844 14.785156 16.003906 C 15.082031 15.886719 15.296875 15.746094 15.523438 15.523438 C 15.746094 15.296875 15.886719 15.082031 16.003906 14.785156 C 16.089844 14.558594 16.195312 14.21875 16.222656 13.59375 C 16.253906 12.917969 16.261719 12.714844 16.261719 11 L 16.261719 10.777344 C 16.261719 9.265625 16.253906 9.054688 16.222656 8.40625 C 16.195312 7.78125 16.089844 7.441406 16.003906 7.214844 C 15.886719 6.917969 15.746094 6.703125 15.523438 6.476562 C 15.296875 6.253906 15.082031 6.113281 14.785156 5.996094 C 14.558594 5.910156 14.21875 5.804688 13.59375 5.777344 C 13.039062 5.75 12.804688 5.742188 11.796875 5.738281 Z M 11 7.703125 C 12.820312 7.703125 14.296875 9.179688 14.296875 11 C 14.296875 12.820312 12.820312 14.296875 11 14.296875 C 9.179688 14.296875 7.703125 12.820312 7.703125 11 C 7.703125 9.179688 9.179688 7.703125 11 7.703125 Z M 11 8.863281 C 9.820312 8.863281 8.863281 9.820312 8.863281 11 C 8.863281 12.179688 9.820312 13.140625 11 13.140625 C 12.179688 13.140625 13.140625 12.179688 13.140625 11 C 13.140625 9.820312 12.179688 8.863281 11 8.863281 Z M 14.425781 6.804688 C 14.851562 6.804688 15.195312 7.148438 15.195312 7.574219 C 15.195312 8 14.851562 8.34375 14.425781 8.34375 C 14 8.34375 13.65625 8 13.65625 7.574219 C 13.65625 7.148438 14 6.804688 14.425781 6.804688 Z M 14.425781 6.804688 "/>
</g>
</svg>
