<?xml version="1.0" encoding="UTF-8"?>
<svg xmlns="http://www.w3.org/2000/svg" xmlns:xlink="http://www.w3.org/1999/xlink" width="22pt" height="22pt" viewBox="0 0 22 22" version="1.1">
<g id="surface1">
<path style="fill:none;stroke-width:1;stroke-linecap:butt;stroke-linejoin:miter;stroke:rgb(53.333333%,53.333333%,53.333333%);stroke-opacity:1;stroke-miterlimit:4;" d="M 12 22.5 C 19.990057 22.5 22.5 19.99858 22.5 12.034091 C 22.5 4.048295 19.96875 1.5 12 1.5 C 4.03125 1.5 1.5 4.048295 1.5 12.034091 C 1.5 19.99858 4.009943 22.5 12 22.5 Z M 12 22.5 " transform="matrix(0.916667,0,0,0.916667,0,0)"/>
<path style=" stroke:none;fill-rule:evenodd;fill:rgb(53.333333%,53.333333%,53.333333%);fill-opacity:1;" d="M 9.097656 16.386719 C 13.855469 16.386719 16.457031 12.445312 16.457031 9.027344 C 16.457031 8.914062 16.453125 8.804688 16.449219 8.695312 C 16.953125 8.328125 17.390625 7.875 17.738281 7.355469 C 17.273438 7.558594 16.773438 7.699219 16.253906 7.761719 C 16.785156 7.441406 17.195312 6.933594 17.390625 6.332031 C 16.890625 6.628906 16.335938 6.84375 15.75 6.957031 C 15.273438 6.457031 14.601562 6.140625 13.859375 6.140625 C 12.433594 6.140625 11.273438 7.300781 11.273438 8.726562 C 11.273438 8.929688 11.296875 9.128906 11.339844 9.316406 C 9.191406 9.207031 7.285156 8.179688 6.011719 6.617188 C 5.789062 6.996094 5.660156 7.441406 5.660156 7.914062 C 5.660156 8.8125 6.117188 9.605469 6.8125 10.066406 C 6.386719 10.054688 5.988281 9.9375 5.640625 9.746094 L 5.640625 9.777344 C 5.640625 11.03125 6.53125 12.074219 7.714844 12.3125 C 7.496094 12.371094 7.269531 12.402344 7.03125 12.402344 C 6.867188 12.402344 6.703125 12.386719 6.546875 12.355469 C 6.875 13.382812 7.832031 14.132812 8.960938 14.152344 C 8.078125 14.847656 6.960938 15.257812 5.75 15.257812 C 5.542969 15.257812 5.335938 15.246094 5.132812 15.222656 C 6.277344 15.957031 7.636719 16.386719 9.097656 16.386719 "/>
</g>
</svg>
