<?xml version="1.0" encoding="UTF-8"?>
<svg xmlns="http://www.w3.org/2000/svg" xmlns:xlink="http://www.w3.org/1999/xlink" width="22pt" height="22pt" viewBox="0 0 22 22" version="1.1">
<g id="surface1">
<path style="fill:none;stroke-width:1;stroke-linecap:butt;stroke-linejoin:miter;stroke:rgb(53.333333%,53.333333%,53.333333%);stroke-opacity:1;stroke-miterlimit:4;" d="M 12 22.5 C 19.990057 22.5 22.5 19.99858 22.5 12.034091 C 22.5 4.048295 19.96875 1.5 12 1.5 C 4.03125 1.5 1.5 4.048295 1.5 12.034091 C 1.5 19.99858 4.009943 22.5 12 22.5 Z M 12 22.5 " transform="matrix(0.916667,0,0,0.916667,0,0)"/>
<path style=" stroke:none;fill-rule:evenodd;fill:rgb(53.333333%,53.333333%,53.333333%);fill-opacity:1;" d="M 17.175781 7.90625 C 17.277344 7.589844 17.175781 7.359375 16.730469 7.359375 L 15.253906 7.359375 C 14.878906 7.359375 14.707031 7.5625 14.605469 7.773438 C 14.605469 7.773438 13.847656 9.613281 12.785156 10.804688 C 12.441406 11.148438 12.28125 11.261719 12.09375 11.261719 C 11.996094 11.261719 11.867188 11.148438 11.867188 10.832031 L 11.867188 7.890625 C 11.867188 7.515625 11.75 7.34375 11.433594 7.34375 L 9.109375 7.34375 C 8.878906 7.34375 8.734375 7.515625 8.734375 7.6875 C 8.734375 8.046875 9.265625 8.132812 9.324219 9.140625 L 9.324219 11.320312 C 9.324219 11.792969 9.238281 11.878906 9.050781 11.878906 C 8.550781 11.878906 7.328125 10.027344 6.597656 7.917969 C 6.453125 7.503906 6.308594 7.34375 5.9375 7.34375 L 4.445312 7.34375 C 4.011719 7.34375 3.941406 7.546875 3.941406 7.761719 C 3.941406 8.148438 4.445312 10.101562 6.28125 12.683594 C 7.5 14.449219 9.238281 15.398438 10.804688 15.398438 C 11.75 15.398438 11.863281 15.183594 11.863281 14.824219 L 11.863281 13.488281 C 11.863281 13.058594 11.949219 12.984375 12.253906 12.984375 C 12.46875 12.984375 12.855469 13.101562 13.730469 13.949219 C 14.734375 14.953125 14.90625 15.410156 15.46875 15.410156 L 16.945312 15.410156 C 17.375 15.410156 17.578125 15.195312 17.460938 14.78125 C 17.335938 14.363281 16.84375 13.761719 16.214844 13.042969 C 15.871094 12.640625 15.351562 12.195312 15.195312 11.980469 C 14.980469 11.695312 15.035156 11.578125 15.195312 11.320312 C 15.179688 11.320312 16.988281 8.765625 17.175781 7.90625 "/>
</g>
</svg>
