<?xml version="1.0" encoding="UTF-8"?>
<svg xmlns="http://www.w3.org/2000/svg" xmlns:xlink="http://www.w3.org/1999/xlink" width="22pt" height="22pt" viewBox="0 0 22 22" version="1.1">
<g id="surface1">
<path style="fill:none;stroke-width:1;stroke-linecap:butt;stroke-linejoin:miter;stroke:rgb(53.333333%,53.333333%,53.333333%);stroke-opacity:1;stroke-miterlimit:4;" d="M 12 22.5 C 19.990057 22.5 22.5 19.99858 22.5 12.034091 C 22.5 4.048295 19.96875 1.5 12 1.5 C 4.03125 1.5 1.5 4.048295 1.5 12.034091 C 1.5 19.99858 4.009943 22.5 12 22.5 Z M 12 22.5 " transform="matrix(0.916667,0,0,0.916667,0,0)"/>
<path style=" stroke:none;fill-rule:evenodd;fill:rgb(53.333333%,53.333333%,53.333333%);fill-opacity:1;" d="M 11.046875 6.417969 C 11.488281 6.417969 15.074219 6.433594 16.015625 6.691406 C 16.566406 6.839844 17 7.285156 17.148438 7.847656 C 17.382812 8.746094 17.414062 10.503906 17.417969 10.914062 L 17.417969 11.085938 C 17.414062 11.496094 17.382812 13.253906 17.148438 14.152344 C 17 14.714844 16.566406 15.160156 16.015625 15.308594 C 15.136719 15.546875 11.957031 15.578125 11.175781 15.582031 L 10.824219 15.582031 C 10.042969 15.578125 6.863281 15.550781 5.984375 15.308594 C 5.433594 15.160156 5 14.714844 4.851562 14.152344 C 4.605469 13.210938 4.585938 11.332031 4.582031 11.039062 L 4.582031 10.960938 C 4.585938 10.667969 4.605469 8.789062 4.851562 7.847656 C 5 7.285156 5.433594 6.839844 5.984375 6.691406 C 6.925781 6.433594 10.511719 6.417969 10.953125 6.417969 Z M 9.167969 8.707031 L 9.167969 13.292969 L 13.292969 11 Z M 9.167969 8.707031 "/>
</g>
</svg>
